<?xml version="1.0" encoding="us-ascii" standalone="no"?><svg xmlns="http://www.w3.org/2000/svg" xmlns:xlink="http://www.w3.org/1999/xlink" contentStyleType="text/css" height="100%" preserveAspectRatio="true" style="width:100%;height:100%;background:#0B58A8;" version="1.1" viewBox="0 0 307 200" width="100%" zoomAndPan="magnify"><defs/><g><rect fill="#0B58A8" height="200" style="stroke:none;stroke-width:1.0;" width="307" x="0" y="0"/><!--class Port--><g id="elem_Port"><rect codeLine="3" fill="#0B58A8" height="174.375" id="Port" rx="2.5" ry="2.5" style="stroke:#FFFFFF;stroke-width:1.0;" width="281" x="12" y="12"/><ellipse cx="133.25" cy="26" fill="#0B58A8" rx="9" ry="9" style="stroke:#FFFFFF;stroke-width:1.0;"/><path d="M135.5938,21.6719 C134.6563,21.2344 134.0625,21.0938 133.1875,21.0938 C130.5625,21.0938 128.5625,23.1719 128.5625,25.8906 L128.5625,27.0156 C128.5625,29.5938 130.6719,31.4844 133.5625,31.4844 C134.7813,31.4844 135.9375,31.1875 136.6875,30.6406 C137.2656,30.2344 137.5938,29.7813 137.5938,29.3906 C137.5938,28.9375 137.2031,28.5469 136.7344,28.5469 C136.5156,28.5469 136.3125,28.625 136.125,28.8125 C135.6719,29.2969 135.6719,29.2969 135.4844,29.3906 C135.0625,29.6563 134.375,29.7813 133.6094,29.7813 C131.5625,29.7813 130.2656,28.6875 130.2656,26.9844 L130.2656,25.8906 C130.2656,24.1094 131.5156,22.7969 133.25,22.7969 C133.8281,22.7969 134.4375,22.9531 134.9063,23.2031 C135.3906,23.4844 135.5625,23.7031 135.6563,24.1094 C135.7188,24.5156 135.75,24.6406 135.8906,24.7656 C136.0313,24.9063 136.2656,25.0156 136.4844,25.0156 C136.75,25.0156 137.0156,24.875 137.1875,24.6563 C137.2969,24.5 137.3281,24.3125 137.3281,23.8906 L137.3281,22.4688 C137.3281,22.0313 137.3125,21.9063 137.2188,21.75 C137.0625,21.4844 136.7813,21.3438 136.4844,21.3438 C136.1875,21.3438 135.9844,21.4375 135.7656,21.75 L135.5938,21.6719 Z " fill="#FFFFFF"/><text fill="#FFFFFF" font-family="Verdana" font-size="14" lengthAdjust="spacing" textLength="31" x="150.75" y="30.8467">Port</text><line style="stroke:#FFFFFF;stroke-width:1.0;" x1="13" x2="292" y1="40" y2="40"/><rect fill="none" height="6" style="stroke:#FFFFFF;stroke-width:1.0;" width="6" x="20" y="50.6484"/><text fill="#FFFFFF" font-family="Verdana" font-size="14" lengthAdjust="spacing" textLength="105" x="30" y="56.9951">PortType type</text><rect fill="none" height="6" style="stroke:#FFFFFF;stroke-width:1.0;" width="6" x="20" y="66.9453"/><text fill="#FFFFFF" font-family="Verdana" font-size="14" lengthAdjust="spacing" textLength="229" x="30" y="73.292">PortDirectionality directionality</text><rect fill="none" height="6" style="stroke:#FFFFFF;stroke-width:1.0;" width="6" x="20" y="83.2422"/><text fill="#FFFFFF" font-family="Verdana" font-size="14" lengthAdjust="spacing" textLength="174" x="30" y="89.5889">Port connectedTo = null</text><line style="stroke:#FFFFFF;stroke-width:1.0;" x1="13" x2="292" y1="96.8906" y2="96.8906"/><ellipse cx="23" cy="110.5391" fill="#0B58A8" rx="3" ry="3" style="stroke:#FFFFFF;stroke-width:1.0;"/><text fill="#FFFFFF" font-family="Verdana" font-size="14" lengthAdjust="spacing" textLength="245" x="30" y="113.8857">Port(PortType, PortDirectionality)</text><ellipse cx="23" cy="126.8359" fill="#0B58A8" rx="3" ry="3" style="stroke:#FFFFFF;stroke-width:1.0;"/><text fill="#FFFFFF" font-family="Verdana" font-size="14" lengthAdjust="spacing" textLength="243" x="30" y="130.1826">boolean connect(Port targetPort)</text><ellipse cx="23" cy="143.1328" fill="#0B58A8" rx="3" ry="3" style="stroke:#FFFFFF;stroke-width:1.0;"/><text fill="#FFFFFF" font-family="Verdana" font-size="14" lengthAdjust="spacing" textLength="257" x="30" y="146.4795">void disconnect(Boolean isRootCall)</text><ellipse cx="23" cy="159.4297" fill="#0B58A8" rx="3" ry="3" style="stroke:#FFFFFF;stroke-width:1.0;"/><text fill="#FFFFFF" font-family="Verdana" font-size="14" lengthAdjust="spacing" textLength="118" x="30" y="162.7764">String toString()</text><ellipse cx="23" cy="175.7266" fill="#0B58A8" rx="3" ry="3" style="stroke:#FFFFFF;stroke-width:1.0;"/><text fill="#FFFFFF" font-family="Verdana" font-size="14" lengthAdjust="spacing" textLength="193" x="30" y="179.0732">boolean equals(Object obj)</text></g></g></svg>